<svg version="1.0" xmlns="http://www.w3.org/2000/svg"
     width="35.000000pt" height="35.000000pt" viewBox="0 0 35.000000 35.000000"
     preserveAspectRatio="xMidYMid meet">
    <metadata>
        Created by potrace 1.16, written by Peter Selinger 2001-2019
    </metadata>
    <g transform="translate(0.000000,35.000000) scale(0.002734,-0.004861)"
       fill="#000000" stroke="none">
        <path d="M4988 7163 c-3 -21 -1 -40 4 -41 4 -2 5 -8 2 -13 -3 -5 -15 2 -26 16
-22 28 -42 24 -33 -6 7 -21 -10 -27 -18 -6 -4 8 -8 8 -14 2 -9 -12 -68 -14
-79 -3 -4 4 -18 -4 -31 -18 -16 -18 -27 -23 -36 -16 -14 11 -129 3 -122 -9 3
-4 1 -10 -5 -14 -5 -3 -10 0 -10 8 0 8 -9 22 -20 32 -20 18 -20 17 -20 -18 0
-20 -4 -39 -10 -42 -6 -3 -7 1 -4 10 4 9 3 15 -2 14 -5 -2 -28 3 -52 10 -41
12 -67 8 -57 -8 2 -5 -7 -13 -20 -19 -19 -9 -31 -8 -52 3 -16 9 -31 11 -38 5
-6 -5 -41 -7 -78 -5 -44 3 -66 1 -62 -5 8 -13 -30 -13 -73 -1 -23 7 -30 6 -26
-1 5 -7 -4 -9 -23 -6 -22 3 -34 -1 -42 -14 -7 -11 -17 -16 -24 -11 -7 4 -23 6
-36 4 -16 -2 -31 5 -43 21 -9 12 -18 18 -18 11 0 -7 -7 -10 -15 -7 -8 4 -22 1
-30 -6 -10 -8 -28 -10 -51 -5 -21 3 -48 2 -64 -5 -22 -9 -34 -8 -58 4 l-31 16
9 -28 c11 -39 -19 -59 -61 -42 -22 10 -32 10 -43 1 -8 -7 -25 -9 -39 -6 -22 6
-25 4 -21 -12 5 -17 1 -19 -31 -15 -26 3 -34 7 -26 15 6 6 11 18 10 26 0 11
-3 10 -9 -4 -7 -16 -9 -17 -9 -3 -1 9 -6 20 -11 23 -7 4 -9 -2 -5 -17 5 -19 1
-27 -22 -38 -39 -20 -74 -58 -60 -64 7 -2 3 -5 -7 -5 -11 -1 -27 6 -36 14 -15
13 -21 13 -61 -2 -24 -10 -45 -21 -47 -25 -6 -14 -52 -9 -52 6 0 9 -13 14 -39
14 -30 1 -40 -4 -44 -19 -4 -14 -14 -19 -36 -19 -41 0 -50 -24 -20 -50 13 -10
19 -19 12 -20 -6 0 -13 6 -16 13 -3 8 -10 6 -21 -8 -11 -14 -15 -16 -16 -6 0
8 -2 12 -5 9 -3 -3 -1 -17 4 -31 10 -25 9 -25 -27 -21 -23 2 -32 1 -24 -4 8
-6 11 -18 7 -34 -5 -20 -1 -29 16 -42 13 -9 18 -16 11 -16 -6 0 -12 -9 -12
-19 0 -25 -16 -36 -27 -18 -9 15 -43 30 -43 19 0 -4 10 -13 22 -21 18 -11 20
-15 7 -25 -40 -32 -38 -88 4 -102 24 -8 22 -28 -3 -21 -15 4 -20 0 -20 -14 0
-14 7 -19 28 -20 21 -1 18 -3 -15 -11 -43 -9 -59 -27 -25 -29 16 0 16 -1 -1
-8 -17 -6 -17 -8 2 -25 11 -10 18 -23 15 -27 -3 -5 2 -9 10 -9 9 0 16 5 16 10
0 6 -4 10 -10 10 -19 0 -10 18 12 23 14 4 26 1 30 -7 14 -24 171 7 229 46 14
10 29 15 32 12 2 -3 20 1 38 9 19 7 55 13 82 13 26 -1 47 3 47 9 0 6 9 16 20
22 16 10 21 10 28 -3 5 -9 15 -12 25 -8 22 8 22 23 0 40 -10 7 -13 14 -7 14
17 0 14 48 -3 62 -13 10 -14 8 -12 -13 2 -15 -4 -33 -13 -42 -16 -16 -17 -11
-14 75 3 120 20 152 64 125 6 -5 13 -5 13 0 10 69 28 98 45 72 4 -8 9 -7 15 2
4 7 11 10 15 6 4 -3 2 -13 -4 -20 -7 -8 -9 -17 -5 -20 3 -4 0 -14 -8 -23 -10
-13 -11 -18 -2 -21 7 -2 9 -11 6 -19 -3 -8 0 -14 5 -14 6 0 14 21 18 48 9 62
18 73 49 58 14 -6 25 -15 25 -19 0 -5 5 -5 10 -2 6 3 10 15 10 26 0 22 28 26
36 4 4 -8 10 -13 14 -10 5 3 13 -2 18 -11 8 -14 10 -12 16 11 7 26 8 26 31 11
19 -13 29 -14 49 -5 20 10 28 9 41 -5 20 -20 13 -46 -12 -46 -16 -1 -16 -2 2
-16 11 -8 19 -18 17 -22 -2 -3 1 -8 7 -10 6 -2 11 6 11 17 0 12 -5 21 -12 21
-9 0 -9 3 0 12 7 7 12 21 12 33 0 14 6 21 20 21 11 0 20 -6 20 -13 0 -7 7 -13
16 -13 10 0 14 -5 10 -16 -3 -9 -2 -12 5 -8 6 3 8 18 5 33 -3 14 -3 20 0 14 3
-7 14 -13 24 -13 20 0 44 -52 30 -66 -11 -13 -22 -67 -12 -61 4 3 6 -10 4 -29
-4 -28 -1 -33 12 -28 9 3 16 17 16 30 0 13 4 24 8 24 4 0 6 15 4 34 -4 31 -2
34 22 33 24 -2 26 -5 20 -27 -9 -35 -7 -59 7 -76 18 -21 28 0 26 54 -2 34 1
42 16 42 20 0 41 -45 34 -72 -4 -13 1 -18 15 -18 18 0 20 6 17 53 -4 55 4 77
26 77 11 0 14 -15 12 -62 l-2 -63 51 0 c50 -1 53 0 68 35 8 19 13 45 10 58 -5
16 -2 22 10 22 17 0 19 -7 16 -56 -2 -36 14 -51 35 -34 8 7 24 10 34 7 11 -3
22 0 25 7 2 6 5 3 5 -6 1 -22 21 -24 21 -3 0 8 9 15 20 15 11 0 20 -4 20 -9 0
-5 34 -8 75 -8 56 0 75 4 75 14 0 7 -7 13 -15 13 -9 0 -15 9 -15 21 0 26 22
20 35 -9 10 -23 39 -29 51 -11 5 8 10 6 16 -5 8 -14 18 -16 52 -11 36 6 44 4
50 -11 4 -10 -1 -25 -12 -38 -35 -38 -43 -62 -27 -76 13 -11 12 -16 -5 -40
-11 -16 -20 -34 -20 -42 0 -8 -5 -6 -11 5 -6 10 -9 27 -6 38 3 12 0 19 -9 19
-8 0 -14 -7 -14 -16 0 -14 -3 -14 -15 -4 -8 7 -15 8 -15 2 0 -14 -42 -23 -56
-11 -8 7 -14 6 -17 -3 -4 -10 -7 -11 -18 0 -18 16 -39 15 -39 -3 0 -11 -10
-13 -52 -8 -37 5 -49 3 -44 -5 5 -8 -3 -12 -23 -12 -16 0 -33 -4 -36 -10 -3
-5 -17 -10 -29 -10 -13 0 -30 -8 -37 -17 -13 -17 -13 -17 6 -3 20 15 20 14 1
-8 -11 -12 -27 -22 -38 -22 -10 0 -18 -5 -18 -12 0 -6 -3 -8 -6 -5 -4 3 -16 1
-28 -5 -20 -11 -20 -11 -1 -19 16 -6 13 -8 -13 -8 -29 -1 -33 2 -27 19 8 24
-20 39 -38 21 -8 -8 -8 -11 1 -11 17 0 15 -29 -2 -36 -8 -3 -16 -14 -19 -25
-3 -11 -14 -19 -26 -19 -12 0 -21 -5 -21 -11 0 -6 -12 4 -27 21 -21 26 -24 33
-12 41 10 6 7 9 -13 9 -14 0 -28 6 -31 13 -8 21 -40 -6 -43 -37 -3 -33 35 -74
48 -53 5 8 8 6 8 -5 0 -10 -5 -18 -11 -18 -6 0 -9 -8 -7 -17 2 -10 8 -18 15
-18 6 0 15 -3 19 -7 4 -5 -4 -8 -19 -8 -14 0 -29 5 -32 10 -11 18 -35 11 -35
-10 0 -19 -10 -24 -37 -21 -7 1 -13 -7 -13 -19 0 -11 -6 -20 -14 -20 -8 0 -16
-5 -18 -12 -3 -8 -11 -9 -24 -3 -10 5 -26 10 -34 10 -8 1 -20 3 -26 4 -7 0
-14 10 -17 21 -3 11 -10 20 -16 20 -6 0 -11 -9 -11 -20 0 -11 -4 -20 -9 -20
-5 0 -7 8 -4 19 7 26 -12 35 -82 38 -33 1 -75 4 -92 8 -20 4 -33 2 -33 -5 0
-5 11 -10 24 -10 14 0 28 -5 31 -11 4 -5 19 -7 34 -4 16 3 39 0 55 -9 35 -18
14 -26 -38 -14 -21 5 -57 9 -80 8 -58 0 -76 2 -76 11 0 4 7 9 15 13 8 3 15 11
15 18 0 9 -3 9 -11 1 -7 -7 -26 -9 -46 -6 -24 4 -38 2 -44 -8 -7 -11 -9 -11
-9 -1 0 8 9 16 21 19 36 10 -1 23 -65 23 -61 0 -126 -17 -126 -33 0 -9 42 1
50 13 8 12 40 8 40 -5 0 -7 7 -19 16 -26 9 -7 20 -22 25 -34 5 -11 15 -28 21
-39 10 -15 10 -19 1 -23 -7 -3 -13 -10 -13 -17 0 -7 -9 -22 -20 -34 -17 -18
-18 -22 -5 -22 13 0 14 -4 5 -20 -6 -11 -20 -20 -30 -20 -25 0 -26 17 -2 23
15 4 15 5 0 6 -27 2 -33 -20 -9 -38 l22 -17 -28 -24 c-15 -14 -34 -23 -40 -22
-7 2 -13 -2 -13 -9 0 -6 -7 -9 -15 -5 -8 3 -15 1 -15 -4 0 -13 -37 -13 -45 1
-9 13 -30 6 -30 -11 0 -17 -66 -19 -72 -3 -9 22 -21 5 -15 -22 3 -20 1 -24
-12 -19 -9 3 -37 -4 -63 -16 -31 -14 -56 -20 -76 -16 -32 7 -67 -8 -67 -28 0
-8 -6 -16 -14 -19 -17 -7 -48 -67 -35 -67 5 0 9 -4 9 -10 0 -5 -13 -10 -30
-10 -16 0 -30 -4 -30 -10 0 -5 5 -10 10 -10 6 0 10 -8 10 -17 0 -13 -3 -14
-11 -6 -18 18 -39 4 -39 -26 -1 -25 -1 -25 -15 -7 -16 21 -25 24 -84 26 -63 3
-71 1 -71 -20 0 -13 -7 -20 -20 -20 -12 0 -20 -6 -19 -12 3 -29 -2 -45 -23
-68 -13 -13 -21 -33 -20 -44 3 -14 -1 -17 -12 -13 -13 5 -15 2 -10 -21 4 -15
3 -24 -1 -19 -5 4 -15 1 -24 -7 -15 -12 -44 -21 -98 -30 -13 -2 -25 3 -29 13
-5 14 -7 13 -14 -4 -4 -11 -16 -20 -26 -20 -18 0 -20 -5 -23 -63 -1 -17 -9
-24 -33 -29 l-33 -7 33 -8 c40 -11 38 -34 -2 -30 -21 2 -29 -2 -33 -18 -5 -17
-12 -21 -32 -18 -25 4 -27 2 -22 -27 2 -16 6 -24 8 -17 5 14 33 16 33 2 0 -5
-7 -10 -15 -10 -8 0 -15 -6 -15 -12 0 -9 -4 -8 -11 2 -9 13 -11 13 -21 -1 -9
-13 -16 -14 -40 -5 -15 6 -28 17 -28 26 0 11 -2 12 -8 3 -6 -9 -12 -7 -22 7
-8 11 -20 20 -26 20 -7 0 -14 6 -17 13 -3 9 -12 8 -36 -5 -28 -15 -33 -16 -38
-3 -4 12 -9 13 -18 5 -10 -8 -19 -8 -35 2 -15 9 -23 10 -28 2 -4 -6 -14 -14
-22 -17 -12 -4 -11 -6 3 -6 9 -1 17 -4 17 -9 0 -4 18 -18 41 -32 22 -14 51
-39 65 -57 21 -28 23 -35 12 -53 -12 -18 -17 -21 -34 -19 -4 0 -10 -4 -14 -11
-5 -8 -17 -1 -38 19 -18 19 -37 29 -45 25 -21 -8 -57 13 -57 34 -1 15 -2 15
-15 -2 -11 -14 -22 -17 -50 -13 -26 4 -35 2 -35 -9 0 -8 7 -14 16 -14 10 0 14
-6 10 -15 -3 -8 -1 -15 4 -15 6 0 10 -10 10 -22 0 -13 7 -32 15 -42 8 -11 15
-30 15 -43 0 -23 -1 -23 -30 -8 -17 9 -35 13 -40 10 -8 -5 -14 13 -12 36 1 3
-11 5 -26 3 -14 -1 -32 2 -39 8 -9 7 -22 7 -43 -2 -24 -10 -30 -19 -30 -41 0
-19 5 -29 15 -29 8 0 15 -7 15 -15 0 -18 -17 -20 -23 -2 -4 10 -7 10 -18 0
-11 -11 -10 -13 4 -13 9 0 17 -7 17 -17 0 -9 3 -13 7 -10 8 8 32 -23 33 -42 0
-11 -3 -11 -15 -1 -10 9 -15 9 -15 1 0 -6 -5 -11 -11 -11 -8 0 -8 4 1 15 10
11 9 18 -3 30 -12 11 -17 12 -21 2 -5 -9 -7 -9 -12 1 -3 6 -12 12 -19 12 -7 0
-16 7 -19 16 -3 8 -10 12 -16 9 -5 -3 -10 2 -11 12 0 11 -3 13 -6 5 -3 -7 0
-19 7 -26 6 -8 7 -17 2 -20 -11 -7 -53 4 -48 13 3 4 1 13 -5 21 -7 12 -9 10
-9 -7 0 -13 0 -26 -1 -30 0 -5 -17 -13 -37 -19 -24 -8 -30 -13 -17 -14 l20 -1
-20 -9 c-28 -12 -47 -12 -40 1 8 12 -14 31 -72 60 -41 20 -54 41 -33 54 16 10
12 34 -9 56 -20 22 -46 17 -37 -7 3 -8 -1 -14 -9 -14 -19 0 -19 -27 0 -64 8
-15 15 -33 15 -40 0 -6 9 -28 20 -49 21 -39 27 -87 10 -87 -5 0 -10 6 -10 13
0 6 -8 2 -18 -9 -9 -12 -33 -25 -53 -28 -34 -6 -47 -20 -53 -60 -2 -13 -23
-19 -30 -8 -3 4 2 21 10 37 10 19 11 32 4 39 -7 7 -10 6 -10 -2 0 -7 -7 -29
-16 -50 -17 -37 -20 -45 -22 -70 -1 -7 -7 -10 -13 -7 -6 4 -8 13 -5 21 4 10
-4 14 -29 14 -41 0 -45 -15 -14 -54 11 -14 16 -26 10 -26 -5 0 -18 13 -27 30
-14 23 -24 28 -45 26 -30 -4 -66 -32 -48 -38 15 -5 -3 -70 -20 -76 -9 -3 -11
0 -6 8 8 13 7 13 -39 -10 -23 -11 -30 -12 -34 -2 -2 6 -12 12 -23 12 -12 0
-16 -5 -13 -15 6 -15 -5 -20 -35 -15 -8 1 -21 -6 -27 -15 -7 -9 -25 -19 -41
-21 -60 -8 -73 -10 -79 -17 -7 -6 27 -11 78 -11 9 0 14 -4 11 -9 -4 -6 0 -8
10 -4 9 3 19 2 22 -3 3 -5 12 -7 20 -4 8 3 19 2 26 -2 7 -4 38 -8 70 -10 32
-1 72 -10 89 -19 17 -9 34 -13 39 -11 5 3 14 -1 21 -8 9 -12 7 -17 -10 -26
-18 -10 -24 -8 -36 7 -7 10 -14 22 -14 26 0 4 -9 3 -19 -3 -11 -5 -29 -10 -40
-10 -12 0 -21 -7 -21 -15 0 -11 11 -15 36 -15 19 0 42 -7 50 -15 15 -15 14
-17 -16 -19 -10 -1 -14 -11 -13 -26 1 -14 -1 -19 -3 -12 -3 6 -10 12 -15 12
-21 0 -66 43 -62 58 2 10 -2 25 -9 35 -12 16 -16 16 -33 3 -16 -12 -17 -16 -6
-30 7 -9 11 -16 7 -16 -3 0 -1 -11 4 -25 7 -19 6 -25 -4 -25 -8 0 -17 6 -20
13 -4 6 -4 2 -2 -10 3 -18 -1 -23 -16 -23 -11 0 -16 -4 -12 -11 3 -6 14 -9 23
-6 11 3 17 -2 18 -16 2 -16 -3 -18 -28 -13 -22 4 -35 0 -50 -15 -20 -20 -21
-20 -25 -1 -6 22 -64 27 -64 5 0 -7 5 -13 12 -13 23 0 -18 -31 -45 -34 -17 -2
-37 -16 -54 -39 -16 -20 -35 -35 -43 -34 -8 1 -19 -8 -25 -21 -5 -12 -17 -22
-25 -21 -28 2 -32 -1 -20 -16 10 -12 5 -17 -25 -30 -44 -18 -60 -19 -85 -5
-14 7 -23 6 -34 -6 -9 -8 -21 -12 -27 -9 -7 5 -9 -1 -7 -15 2 -13 -3 -25 -11
-28 -10 -3 -12 0 -8 12 5 12 3 15 -6 9 -6 -4 -22 -6 -34 -4 -18 2 -23 -3 -23
-18 0 -12 -4 -21 -10 -21 -7 0 -10 -335 -10 -984 l0 -983 33 -10 c29 -8 32
-12 32 -48 0 -52 9 -61 60 -57 38 3 46 0 77 -32 20 -20 41 -34 49 -31 17 6 44
-34 32 -46 -4 -4 -26 -2 -48 6 -22 8 -33 14 -25 15 28 1 -12 20 -45 21 -16 0
-24 3 -17 6 6 2 12 9 12 14 0 16 -36 10 -60 -11 -15 -13 -18 -20 -9 -20 13 0
49 -33 49 -45 0 -3 -9 -5 -20 -5 -11 0 -20 -4 -20 -10 0 -5 7 -7 15 -4 8 4 15
2 15 -3 0 -18 -12 -21 -43 -11 -27 10 -33 8 -49 -12 -10 -12 -18 -16 -18 -9 0
9 -3 10 -11 2 -5 -5 -9 -34 -7 -64 3 -52 4 -54 30 -51 15 2 33 0 39 -4 7 -4
30 -9 51 -11 29 -2 37 0 32 9 -5 10 -4 10 6 1 11 -10 11 -15 0 -28 -10 -13 -9
-15 8 -15 11 0 25 -7 33 -16 7 -8 21 -13 31 -11 10 3 18 1 18 -4 0 -5 7 -9 15
-9 8 0 15 -4 15 -9 0 -5 3 -18 7 -28 6 -16 5 -16 -10 -4 -12 9 -17 10 -17 2 0
-7 -5 -9 -10 -6 -6 3 -10 1 -10 -4 0 -6 5 -11 10 -11 6 0 10 -8 10 -19 0 -14
6 -18 25 -16 14 2 25 -1 25 -6 0 -5 7 -9 15 -9 8 0 15 -5 15 -10 0 -7 6 -7 18
-2 23 13 77 -39 59 -57 -8 -8 -6 -11 10 -11 16 0 20 5 16 18 -2 10 2 24 10 30
21 18 52 -8 43 -36 -4 -12 -12 -20 -17 -17 -5 4 -9 0 -9 -9 0 -8 13 -17 30
-21 16 -4 30 -11 30 -16 0 -12 -1 -12 -52 5 -38 12 -78 17 -78 10 0 -8 64 -33
71 -28 5 3 9 -6 9 -20 0 -30 15 -34 29 -8 8 13 12 14 22 5 10 -10 9 -16 -4
-31 -26 -29 -21 -44 12 -40 19 2 41 -6 60 -20 17 -12 37 -22 45 -22 23 0 31
-22 13 -35 -9 -7 -14 -15 -10 -18 11 -12 41 -7 46 7 4 10 18 13 49 10 72 -8
88 -14 88 -29 0 -8 5 -15 10 -15 6 0 10 7 10 15 0 8 2 15 5 15 12 0 55 -33 55
-41 0 -12 -59 -6 -85 8 -17 10 -20 8 -20 -13 0 -17 4 -23 14 -19 11 4 11 3 2
-9 -7 -8 -25 -18 -41 -21 -16 -3 -36 -17 -45 -31 -20 -31 -54 -45 -77 -32 -13
6 -18 5 -18 -6 0 -18 33 -30 60 -21 30 9 60 -4 60 -26 0 -27 18 -24 32 6 12
28 27 32 47 12 10 -10 16 -7 33 13 19 23 20 23 14 3 -8 -27 7 -37 34 -23 25
13 25 9 2 -17 -30 -34 -82 -49 -113 -33 -15 8 -19 7 -19 -4 0 -8 -3 -22 -6
-31 -5 -11 0 -18 15 -22 28 -7 27 -23 -2 -23 -13 0 -29 -6 -35 -12 -10 -10
-15 -10 -22 2 -11 17 -4 30 16 30 11 0 13 6 8 23 -8 28 -8 28 -33 30 -11 1
-21 7 -21 14 0 19 -13 16 -28 -7 -12 -19 -42 -28 -42 -12 0 4 -9 13 -21 20
-19 12 -20 11 -14 -7 7 -24 6 -25 -29 -11 -29 11 -78 -2 -57 -15 7 -4 30 -10
50 -12 20 -3 44 -9 53 -14 11 -6 18 -5 20 3 3 8 13 8 36 -3 35 -15 38 -25 18
-52 -11 -14 -24 -16 -60 -13 -33 3 -48 1 -54 -10 -7 -12 -14 -13 -37 -4 -19 7
-31 8 -39 0 -14 -14 -26 -13 -20 3 3 8 -3 13 -16 13 -12 0 -23 -10 -29 -28 -6
-15 -13 -28 -17 -28 -3 0 -3 7 0 16 5 12 2 15 -11 9 -49 -20 -88 -24 -96 -9
-13 23 -37 17 -37 -9 0 -33 -7 -37 -37 -22 -15 8 -31 11 -36 8 -18 -11 -61
-12 -73 -2 -9 7 -17 3 -27 -11 -12 -17 -19 -20 -34 -12 -10 6 -31 8 -46 5
l-27 -5 0 -209 0 -209 860 0 c567 0 860 3 860 10 0 6 -7 10 -15 10 -7 0 -18 6
-22 13 -8 14 -73 47 -92 47 -6 0 -11 12 -11 26 0 14 -4 23 -10 19 -5 -3 -10
-1 -10 5 0 6 -5 8 -10 5 -6 -3 -13 1 -16 9 -3 9 -13 16 -21 16 -8 0 -11 5 -8
10 4 6 11 8 16 5 5 -4 9 -1 9 4 0 6 -7 11 -15 11 -9 0 -18 7 -21 15 -4 8 -17
15 -29 15 -18 0 -23 5 -20 18 2 13 -3 18 -18 18 -12 -1 -22 4 -22 10 0 6 -8
18 -18 28 -19 19 -14 38 7 30 9 -3 15 5 18 25 4 24 2 28 -9 20 -9 -8 -17 -8
-27 0 -10 8 -16 9 -19 1 -3 -6 -4 -5 -3 2 2 7 8 13 14 13 6 0 17 6 24 14 7 8
8 11 2 8 -7 -4 -11 6 -12 26 0 17 -6 33 -11 35 -22 7 -10 24 14 20 13 -3 22
-1 19 4 -3 4 -3 17 1 28 5 16 17 20 68 22 54 3 59 5 38 14 -21 9 -8 12 80 19
57 4 112 7 122 7 15 -1 16 2 7 14 -9 10 -9 14 -1 14 6 0 14 -6 17 -14 5 -14
50 -11 69 5 6 4 40 4 75 -1 53 -8 67 -6 82 7 15 14 19 13 40 -10 16 -17 29
-22 43 -17 11 4 38 6 60 6 22 -1 46 5 54 12 7 7 16 10 19 7 4 -3 0 -10 -8 -15
-8 -6 -10 -10 -5 -11 6 0 21 -2 33 -3 13 -2 26 2 28 9 3 6 19 9 39 7 20 -2 32
-8 29 -14 -4 -6 4 -8 22 -4 33 6 84 9 99 6 28 -6 41 -4 51 10 10 12 15 12 27
1 12 -9 21 -10 37 -1 11 6 24 9 28 6 4 -2 45 -5 92 -7 61 -2 84 1 82 9 -1 7 2
12 8 12 5 0 10 -4 10 -9 0 -5 22 -9 49 -9 40 -1 49 2 44 14 -4 12 1 14 22 10
15 -3 34 -11 42 -18 12 -10 17 -9 25 6 6 11 13 14 21 8 20 -16 133 -19 147 -4
8 9 16 10 22 4 6 -6 24 -6 46 -1 41 9 76 11 55 2 -27 -10 -11 -19 38 -21 29
-1 57 2 64 8 12 10 76 7 95 -5 5 -3 11 -1 15 5 3 5 12 10 18 10 7 0 6 -4 -3
-10 -23 -15 7 -13 63 4 26 8 47 10 47 5 0 -5 7 -9 15 -9 8 0 15 6 15 13 0 9
10 12 30 9 17 -2 30 -7 30 -11 0 -3 11 -7 25 -7 20 -2 23 1 15 11 -8 9 -5 12
12 11 13 -1 22 -7 20 -14 -3 -16 20 -15 54 3 26 13 29 13 32 0 4 -20 22 -19
22 0 0 8 5 15 11 15 5 0 8 -4 4 -9 -3 -6 19 -10 55 -9 33 0 60 5 60 9 0 5 15
9 34 9 19 0 38 4 41 10 9 15 28 12 22 -4 -6 -14 39 -33 51 -21 3 3 -2 5 -11 5
-10 0 -17 4 -17 8 0 7 36 8 90 3 13 -1 13 -2 0 -11 -12 -8 -11 -10 8 -10 12 0
21 5 20 11 -2 6 5 13 15 14 9 2 17 -1 17 -6 0 -15 69 -10 95 7 15 10 25 12 25
5 0 -6 14 -11 31 -11 20 0 28 4 23 12 -5 8 -2 9 10 5 10 -4 20 -7 22 -7 2 0 4
-7 4 -15 0 -8 5 -15 11 -15 6 0 8 7 5 16 -4 10 -2 14 6 11 7 -2 21 0 31 5 13
7 17 5 17 -8 0 -12 6 -15 25 -10 15 4 25 2 25 -4 0 -6 5 -8 11 -5 6 4 8 13 5
21 -8 20 38 18 54 -1 8 -10 29 -15 54 -15 23 0 61 -2 86 -4 24 -3 49 -1 56 5
8 7 14 7 19 -1 8 -12 115 -14 115 -1 0 15 40 24 54 12 19 -16 174 -10 181 7 2
6 13 12 24 12 11 0 22 4 25 9 7 10 75 9 93 -2 6 -4 18 -4 27 -1 10 4 16 1 16
-7 0 -11 2 -11 8 -1 5 7 16 10 26 6 14 -5 15 -9 4 -16 -9 -7 -7 -8 7 -3 44 15
88 18 81 7 -9 -14 56 -16 122 -3 23 5 42 5 42 0 0 -4 27 -7 60 -6 33 1 56 3
50 5 -5 2 -7 8 -4 14 4 6 9 5 15 -3 7 -12 112 -13 464 -5 33 1 135 3 226 4
l166 2 65 83 c98 123 135 160 147 153 6 -4 11 -3 11 3 0 5 -6 12 -12 14 -8 3
-6 6 5 6 16 1 22 -14 19 -51 -3 -29 29 -18 40 13 4 10 16 16 30 15 13 -1 29 2
36 7 8 6 12 5 12 -2 0 -6 -4 -11 -10 -11 -5 0 -10 -12 -10 -28 0 -27 -17 -58
-52 -96 -10 -11 -18 -23 -18 -26 0 -9 -35 -49 -165 -192 -14 -15 -25 -32 -25
-38 0 -6 -4 -9 -8 -6 -5 3 -25 -26 -45 -64 -27 -52 -33 -70 -22 -70 8 0 15 -6
16 -12 0 -7 2 -24 5 -37 2 -13 0 -29 -6 -36 -6 -7 -10 -17 -9 -21 4 -25 -2
-54 -11 -49 -13 8 -13 2 4 -29 14 -28 20 -35 80 -99 34 -37 46 -67 27 -67 -5
0 -11 5 -13 12 -3 7 -7 6 -11 -5 -6 -15 6 -17 132 -17 l138 0 49 49 c27 26 81
84 120 127 39 43 112 124 161 179 49 55 108 117 131 137 62 56 133 88 87 39
-8 -9 -42 -51 -75 -94 -82 -105 -69 -91 -250 -274 l-159 -163 1273 0 c1146 0
1274 2 1280 16 3 8 10 13 15 9 5 -3 12 4 16 15 3 11 11 20 16 20 5 0 9 5 9 10
0 6 18 29 40 53 66 68 68 71 79 99 6 16 21 30 36 34 14 3 25 12 25 20 0 8 4
14 9 14 5 0 11 12 13 28 2 17 9 27 20 27 21 0 35 14 40 40 2 11 8 20 14 20 21
0 41 31 39 60 -1 30 30 95 46 95 4 0 7 17 6 38 -1 23 2 36 9 35 7 -1 10 6 7
16 -5 21 18 42 25 23 2 -7 14 -12 27 -12 30 0 42 30 19 47 -17 12 -17 13 2 13
10 0 26 -4 34 -10 9 -5 19 -5 27 2 9 7 13 7 13 -2 0 -7 7 -10 15 -6 8 3 15 0
15 -6 0 -6 8 -4 18 5 10 10 24 17 30 17 11 0 16 13 13 35 -1 6 4 3 11 -5 8
-10 29 -15 59 -14 51 1 73 10 66 28 -3 7 4 13 14 13 10 1 19 -2 19 -8 0 -5 -4
-9 -9 -9 -5 0 -16 -11 -25 -25 -17 -25 -17 -25 15 -23 17 1 36 9 42 18 7 8 21
16 32 18 11 1 28 3 37 4 9 1 14 6 12 10 -3 4 1 8 8 9 7 0 22 2 33 5 11 2 121
11 245 20 209 15 229 15 290 -1 36 -9 79 -23 95 -30 24 -10 132 -44 192 -60 6
-2 14 -1 18 3 3 3 56 7 118 8 62 2 125 7 141 13 19 8 32 8 41 1 15 -12 25 -3
26 24 0 20 1 20 11 -1 14 -28 25 -29 33 -3 4 14 15 20 35 20 22 0 28 -4 24
-15 -12 -30 7 -14 21 18 8 17 14 26 15 20 0 -20 27 -15 44 8 8 12 19 18 25 15
5 -4 12 -2 16 4 3 5 15 10 26 10 10 0 19 6 19 13 0 16 57 40 89 37 13 -1 44
-10 68 -21 25 -10 49 -17 53 -14 5 3 58 7 117 9 59 2 116 4 126 5 9 0 17 8 17
16 0 18 17 20 22 3 2 -6 10 4 18 23 7 19 14 35 15 37 6 8 35 -12 35 -24 0 -16
26 -19 35 -4 4 6 11 8 16 5 5 -4 9 -1 9 4 0 7 7 7 20 -1 27 -17 25 -24 -7 -23
-14 0 -28 -5 -30 -11 -2 -6 13 -10 39 -10 35 1 43 5 42 19 -1 9 2 17 7 17 5 0
9 -7 9 -15 0 -8 7 -15 16 -15 11 0 14 5 10 16 -4 11 1 18 14 21 20 5 20 13 20
1067 -1 894 -3 1064 -15 1080 -7 10 -19 15 -25 11 -6 -3 -10 -3 -9 2 4 24 -16
51 -47 62 -20 7 -38 20 -42 29 -9 24 -30 44 -41 38 -5 -3 -11 4 -14 15 -3 12
-11 19 -18 17 -7 -2 -22 6 -35 19 -13 13 -32 23 -43 23 -13 0 -21 8 -23 23 -2
18 -8 21 -31 19 -22 -2 -30 2 -34 18 -4 14 -13 21 -27 19 -38 -3 -46 1 -46 21
0 25 -29 38 -41 19 -6 -10 -9 -4 -9 18 0 45 -14 76 -49 112 -17 18 -31 36 -31
41 0 5 -15 19 -32 31 -51 36 -88 76 -88 95 0 9 -3 15 -6 11 -11 -11 -106 94
-99 111 3 8 2 18 -3 21 -21 13 -80 100 -91 133 -7 20 -18 38 -25 41 -7 3 -18
27 -25 54 -7 26 -16 55 -20 63 -5 9 -12 31 -16 50 -4 19 -12 40 -17 47 -5 6
-8 24 -6 40 2 20 8 27 21 25 9 -2 17 1 17 5 0 5 12 9 28 8 16 0 26 5 25 12 -3
11 26 12 47 2 3 -1 16 -3 30 -4 14 -1 33 -5 43 -10 13 -6 17 -2 17 18 0 17 7
26 21 30 25 7 37 -17 19 -38 -10 -12 -9 -15 4 -15 9 0 15 3 15 8 -4 26 3 42
21 42 11 0 20 5 20 11 0 7 10 9 25 7 13 -3 26 0 28 6 2 6 8 7 13 3 5 -4 2 -12
-6 -17 -8 -5 -11 -12 -8 -15 4 -4 16 2 28 13 21 19 60 20 60 0 0 -5 7 -16 15
-24 12 -12 15 -13 15 -2 0 8 13 15 31 16 17 1 40 7 50 13 11 5 29 7 39 4 12
-4 20 -2 20 4 0 6 7 11 15 11 8 0 15 5 15 11 0 6 -12 10 -27 9 -46 -3 -51 -1
-46 21 4 13 8 16 13 9 4 -6 24 -13 46 -14 21 -2 40 -5 42 -6 7 -7 29 -5 40 3
8 6 12 5 12 -4 1 -10 4 -8 11 4 11 19 44 23 54 7 3 -5 19 -10 35 -10 16 0 35
-7 44 -15 8 -8 20 -15 27 -15 8 0 9 -3 0 -13 -8 -10 -7 -19 4 -33 13 -16 14
-16 9 -1 -4 10 -1 17 6 17 15 0 2 41 -19 57 -13 10 -11 11 14 9 19 -2 34 -11
40 -24 9 -21 35 -31 35 -14 0 14 -62 62 -81 62 -10 0 -19 2 -19 5 0 12 40 48
47 42 3 -4 1 -7 -5 -7 -7 0 -12 -4 -12 -10 0 -5 9 -10 19 -10 11 0 23 -4 26
-10 16 -25 24 -4 24 61 0 71 0 71 -25 65 -23 -6 -153 -10 -599 -21 -93 -2
-280 -7 -413 -10 -194 -6 -249 -5 -269 6 -20 11 -26 11 -32 0 -7 -10 -9 -9
-14 2 -3 10 -13 13 -25 10 -11 -2 -23 0 -26 6 -4 6 -3 11 3 11 14 0 10 42 -7
62 -10 12 -23 16 -40 11 -20 -5 -24 -3 -19 10 3 9 -1 21 -10 29 -14 11 -16 10
-11 -9 4 -14 1 -24 -9 -27 -26 -10 -33 -7 -33 17 0 37 -14 49 -53 46 -20 -2
-40 1 -44 5 -5 5 -2 6 6 1 10 -6 12 -4 7 4 -5 8 -12 9 -19 2 -8 -6 -18 -5 -30
4 -10 7 -27 10 -39 7 -18 -4 -20 -2 -15 17 6 23 -28 52 -35 30 -2 -7 -9 -5
-18 5 -10 13 -10 16 -1 14 21 -5 21 31 1 37 -11 3 -22 15 -25 26 -4 10 -13 19
-21 19 -11 0 -15 9 -14 33 3 50 1 57 -15 57 -11 0 -12 5 -5 25 6 17 6 34 -2
52 -6 16 -10 32 -9 36 1 5 -8 23 -19 42 -27 43 -25 53 8 58 l27 4 -28 2 c-16
0 -26 5 -22 10 3 6 -3 25 -14 44 -12 22 -16 39 -10 48 5 9 3 22 -6 36 -8 12
-15 28 -15 36 0 7 -9 32 -20 55 -11 22 -20 46 -20 52 0 5 -5 10 -11 10 -5 0
-7 5 -4 10 3 6 0 11 -7 12 -43 5 -90 20 -121 39 -29 17 -28 17 75 19 56 1 137
5 178 8 l75 7 73 220 c40 121 83 252 97 292 18 55 22 79 15 103 -6 20 -5 40 2
56 15 32 32 31 25 -2 -7 -36 10 -15 18 23 3 18 2 34 -4 37 -6 4 -7 14 -4 23 4
11 3 14 -5 9 -18 -11 -15 25 4 45 9 10 17 30 16 45 0 26 1 27 12 6 6 -12 16
-18 22 -14 9 6 44 94 44 111 0 14 -29 -37 -30 -51 0 -17 -9 -22 -27 -16 -5 2
-7 6 -6 10 2 5 -2 8 -7 8 -6 0 -10 5 -10 11 0 5 5 7 10 4 6 -3 10 5 10 19 0
35 11 61 20 46 5 -8 9 -7 13 4 4 11 -1 18 -18 22 -27 7 -32 18 -14 30 6 3 15
1 19 -6 5 -9 9 -8 13 3 4 10 -5 21 -29 32 -20 9 -34 23 -34 33 0 10 -5 23 -12
30 -7 7 -8 12 -4 12 5 0 3 7 -5 16 -10 13 -10 17 2 25 11 7 9 9 -9 9 -15 0
-22 -5 -19 -12 2 -7 0 -21 -5 -31 -6 -12 -6 -23 1 -30 14 -18 33 -69 22 -63
-5 4 -11 0 -14 -6 -2 -8 -8 -9 -13 -4 -5 5 -4 11 4 13 14 5 17 33 3 33 -5 0
-11 -3 -14 -7 -2 -5 -2 -2 0 5 2 8 0 19 -4 25 -9 15 -14 37 -14 60 0 23 -16
22 -24 -2 -7 -22 -33 -46 -41 -38 -3 3 4 14 16 25 25 23 11 39 -20 22 -17 -9
-20 -8 -21 12 -1 13 -1 26 -1 29 1 4 3 22 5 40 5 47 39 149 49 149 4 0 8 14 8
30 0 17 4 30 9 30 4 0 6 11 3 25 -3 18 0 25 12 25 9 0 16 7 16 15 0 19 -32 33
-38 17 -2 -7 -9 -9 -15 -5 -6 4 -8 0 -4 -9 4 -12 1 -14 -13 -11 -24 6 -44 -13
-54 -50 -3 -15 -17 -31 -29 -36 -13 -5 -23 -18 -24 -31 -2 -26 -32 -62 -44
-54 -5 3 -9 0 -9 -5 0 -6 6 -11 12 -11 7 0 2 -7 -10 -16 -12 -8 -22 -22 -22
-30 0 -8 -9 -23 -21 -35 -15 -15 -19 -28 -15 -47 5 -20 4 -23 -4 -12 -8 13
-10 13 -10 -2 0 -10 -4 -18 -9 -18 -5 0 -12 -18 -16 -40 -4 -22 -10 -42 -15
-45 -4 -3 -11 -21 -14 -41 -6 -30 -10 -34 -22 -23 -8 6 -17 9 -20 6 -9 -9 6
-48 16 -42 7 4 8 -35 1 -53 0 -2 -8 4 -17 12 -8 9 -20 16 -25 16 -12 0 -11
-17 2 -25 13 -9 6 -30 -11 -30 -7 0 -15 -6 -18 -14 -3 -8 0 -11 7 -7 6 4 11 3
11 -3 0 -6 -9 -15 -20 -21 -23 -12 -27 -30 -6 -30 9 0 12 -7 9 -20 -5 -17 -8
-18 -21 -8 -13 10 -14 10 -8 0 4 -7 -2 -25 -14 -42 -12 -16 -19 -34 -15 -40 3
-5 1 -17 -5 -27 -19 -34 -50 -124 -45 -133 3 -4 -1 -13 -9 -19 -8 -7 -17 -24
-20 -39 -15 -64 -79 -221 -93 -226 -22 -9 -30 0 -37 38 -5 23 -17 43 -38 57
-29 21 -30 23 -12 31 14 6 12 7 -8 3 -23 -4 -28 -2 -28 15 0 13 -7 20 -19 20
-11 0 -26 7 -35 15 -8 8 -19 15 -25 15 -18 0 -1 27 24 38 20 9 24 8 28 -9 4
-15 4 -14 3 3 -1 20 -6 23 -46 23 -25 0 -51 6 -58 13 -8 7 -18 9 -24 6 -6 -4
-17 1 -24 11 -10 13 -21 16 -42 12 -22 -5 -34 -1 -48 14 -9 10 -25 17 -33 14
-9 -3 -21 3 -28 15 -11 16 -10 21 5 29 16 10 16 10 0 11 -9 0 -23 -6 -30 -12
-16 -15 -55 -38 -64 -38 -3 0 -4 8 -2 18 3 11 -2 23 -13 30 -23 15 -42 16 -34
2 9 -14 -28 -13 -43 2 -9 9 -13 7 -19 -8 -10 -24 -83 -32 -83 -9 0 11 -8 13
-29 9 -16 -3 -31 -1 -35 4 -7 11 -44 5 -63 -11 -9 -7 -13 -5 -13 5 0 14 64 48
91 48 8 0 32 9 54 20 22 11 48 20 60 20 27 0 49 15 41 28 -8 14 -232 5 -260
-10 -16 -9 -23 -6 -38 11 -9 13 -22 20 -28 16 -5 -3 -13 1 -16 9 -3 9 -17 16
-31 16 -13 0 -21 4 -18 10 3 5 0 7 -9 4 -8 -3 -12 -12 -10 -19 4 -10 -10 -14
-53 -17 -32 -2 -63 0 -70 5 -7 5 -20 4 -31 -2 -11 -6 -22 -7 -26 -4 -3 3 -6
-3 -6 -14 0 -22 -25 -39 -35 -23 -3 5 -12 7 -21 3 -8 -3 -13 -8 -10 -10 3 -3
-2 -12 -11 -21 -14 -14 -17 -14 -29 2 -12 17 -13 17 -25 -2 -7 -12 -19 -17
-31 -14 -10 2 -28 -4 -40 -14 -21 -19 -21 -19 -14 9 6 26 5 28 -14 22 -12 -4
-26 0 -36 9 -8 9 -21 16 -29 16 -8 0 -11 7 -8 20 4 14 0 20 -11 20 -9 0 -16
-4 -16 -8 0 -7 -33 -8 -62 -3 -16 2 -7 21 10 22 10 0 12 3 4 6 -6 2 -9 10 -6
15 14 22 -61 -2 -78 -25 -10 -12 -25 -29 -33 -38 -8 -9 -15 -21 -15 -28 0 -7
-6 -11 -12 -8 -7 2 -21 -5 -30 -16 -10 -11 -24 -17 -32 -14 -20 8 -28 -3 -15
-20 12 -14 12 -14 -44 -17 -34 -2 -62 -29 -53 -51 5 -14 9 -15 22 -5 11 10 18
10 26 2 8 -8 7 -13 -5 -17 -9 -4 -13 -13 -10 -21 3 -9 12 -13 20 -10 8 3 11 2
8 -3 -3 -5 -1 -12 5 -16 5 -3 10 1 10 9 0 23 9 20 41 -14 30 -30 32 -30 30 5
0 11 2 14 5 8 3 -7 11 -13 18 -13 16 0 66 -45 66 -60 0 -5 -7 -10 -16 -10 -11
0 -14 -6 -9 -20 4 -14 2 -20 -9 -20 -21 0 -5 -49 28 -85 14 -15 26 -36 26 -45
0 -9 13 -44 29 -76 16 -32 33 -71 39 -86 7 -16 25 -33 45 -42 40 -16 173 -121
181 -142 3 -8 15 -14 27 -14 21 0 21 0 -2 -19 -14 -10 -65 -25 -124 -36 -55
-9 -105 -22 -112 -27 -6 -5 -17 -8 -25 -7 -23 3 -97 -33 -92 -45 3 -8 -6 -11
-30 -8 -27 3 -37 -1 -47 -16 -7 -11 -18 -18 -24 -16 -7 3 -18 -2 -25 -11 -7
-8 -18 -15 -25 -15 -7 0 -17 -6 -23 -12 -11 -13 -133 -77 -202 -106 -19 -8
-43 -19 -52 -23 -26 -13 -29 -11 -17 15 7 14 9 35 5 49 -5 20 -10 23 -32 19
-21 -4 -25 -2 -19 9 4 8 -30 -24 -75 -71 -77 -81 -81 -87 -78 -125 3 -36 0
-40 -21 -43 -13 -2 -26 -12 -28 -23 -3 -10 -12 -19 -19 -19 -8 0 -23 -9 -33
-19 -11 -11 -23 -16 -28 -13 -4 4 -2 0 4 -8 11 -11 7 -16 -18 -27 -24 -10 -30
-18 -26 -33 4 -17 0 -22 -24 -27 -16 -3 -29 -12 -29 -19 0 -8 -10 -14 -22 -14
-13 0 -18 -4 -13 -8 12 -8 13 -81 1 -100 -4 -7 -5 -25 -1 -41 4 -17 2 -32 -5
-36 -7 -4 -8 -24 -4 -55 5 -42 4 -49 -12 -53 -15 -4 -15 -5 -3 -6 15 -1 31
-61 29 -111 0 -8 0 -24 -1 -35 0 -11 -4 -22 -9 -25 -4 -3 -4 -29 2 -59 5 -29
7 -56 4 -59 -3 -3 -6 2 -6 11 0 9 -4 17 -10 17 -16 0 -12 -27 7 -46 11 -10 18
-32 18 -56 0 -26 3 -37 12 -34 16 7 25 -9 29 -51 2 -18 12 -47 24 -62 11 -16
20 -36 20 -44 0 -9 5 -19 10 -22 6 -4 8 -10 5 -15 -3 -5 1 -34 10 -64 12 -40
20 -53 31 -49 8 3 14 1 14 -5 0 -11 78 -52 98 -52 7 0 12 -8 12 -17 0 -15 2
-16 10 -3 8 12 10 11 10 -7 0 -14 -6 -23 -15 -23 -16 0 -19 -45 -5 -90 6 -22
8 -23 15 -7 4 9 5 29 3 42 -3 14 -2 25 2 25 4 0 11 -15 14 -34 6 -33 25 -221
22 -221 0 0 -17 -6 -36 -13 -31 -11 -38 -10 -70 13 -20 14 -46 25 -59 25 l-23
0 21 -34 c12 -18 21 -40 21 -48 0 -20 43 -65 66 -70 10 -2 21 -14 24 -28 5
-18 12 -24 26 -22 11 2 15 0 8 -5 -5 -4 -15 -30 -21 -58 -9 -41 -9 -51 3 -58
8 -4 14 -15 14 -22 0 -8 5 -15 11 -15 6 0 8 -7 5 -17 -4 -10 -4 -14 0 -10 4 4
14 -7 21 -24 9 -23 10 -36 2 -51 -7 -14 -8 -28 -2 -42 24 -52 33 -90 22 -96
-12 -8 7 -55 34 -85 14 -16 17 -33 15 -82 -1 -34 1 -65 5 -69 4 -4 2 -13 -3
-20 -8 -8 -6 -16 5 -27 8 -9 15 -23 15 -31 0 -9 5 -16 11 -16 6 0 9 -6 6 -14
-3 -8 -3 -17 1 -20 3 -4 7 -15 9 -26 3 -22 -13 -28 -20 -7 -3 8 -10 6 -26 -7
-22 -20 -22 -20 -28 2 -3 13 -13 22 -25 22 -13 0 -18 6 -16 18 2 9 8 17 15 17
21 0 28 16 10 26 -9 6 -17 14 -17 19 0 5 -10 20 -22 33 -13 14 -37 49 -55 78
-28 47 -31 59 -24 92 6 23 5 37 -1 37 -5 0 -6 10 -3 21 4 12 1 32 -5 45 -10
17 -10 27 -2 37 8 10 6 16 -8 25 -13 8 -17 18 -13 29 5 12 2 15 -10 10 -18 -7
-18 -9 -20 76 -1 26 -5 47 -9 47 -5 0 -8 16 -8 35 0 29 -5 37 -25 45 -24 9
-35 30 -15 30 6 0 10 7 10 15 0 8 -7 15 -15 15 -8 0 -19 9 -25 19 -13 25 -13
31 3 31 6 0 12 11 12 25 0 14 -6 25 -12 25 -13 0 -14 2 -18 48 -1 15 -5 35 -9
45 -5 10 -4 17 3 17 6 0 11 7 11 15 0 8 -7 15 -15 15 -8 0 -15 5 -15 10 0 6 7
10 16 10 8 0 13 4 9 10 -3 5 -12 7 -20 3 -10 -3 -15 1 -15 12 0 9 4 14 9 10 5
-3 12 -1 15 4 4 5 1 13 -4 16 -6 4 -10 19 -8 33 2 22 -2 28 -20 30 -16 3 -21
8 -17 21 6 19 -21 131 -35 145 -5 5 -5 18 -1 30 10 30 8 40 -12 61 -15 14 -16
20 -5 26 10 7 10 11 0 21 -7 7 -12 37 -12 70 0 45 -3 58 -15 58 -23 0 -35 66
-22 125 6 23 5 25 -2 10 -12 -25 -14 -11 -11 68 1 42 -2 57 -12 57 -10 0 -9 3
2 10 12 8 13 11 1 19 -9 6 -10 10 -2 16 8 4 9 11 3 18 -28 36 -36 303 -13 410
6 23 9 49 9 57 -1 8 0 26 0 39 2 20 4 21 17 11 20 -17 20 5 1 43 -14 25 -13
27 5 27 10 0 19 5 19 10 0 6 -10 10 -22 10 -29 0 -18 9 14 12 18 2 24 7 20 17
-4 10 -1 13 11 8 9 -3 19 -2 22 3 4 6 2 10 -3 10 -6 0 -12 6 -15 14 -5 12 0
13 25 5 46 -13 57 -27 34 -45 -11 -8 -16 -14 -10 -15 5 0 0 -4 -11 -9 -19 -8
-19 -9 3 -9 12 -1 22 -5 22 -11 0 -5 5 -10 11 -10 6 0 8 9 4 20 -4 14 -2 20 7
18 10 -2 12 11 10 52 -2 41 0 52 9 43 15 -15 39 6 31 27 -8 21 -32 44 -32 31
0 -23 -15 -10 -16 14 -2 18 4 26 20 29 66 14 76 17 72 25 -3 4 6 7 19 5 14 -1
27 2 31 7 3 5 18 9 34 9 26 0 49 25 35 38 -3 3 -5 0 -5 -7 0 -7 -4 -9 -10 -6
-17 10 -73 17 -151 19 -51 1 -83 6 -95 16 -16 13 -17 13 -9 0 8 -13 7 -13 -8
-1 -18 14 -24 51 -8 51 15 0 22 47 11 74 -7 19 -6 29 5 39 8 9 10 18 5 23 -13
13 -1 54 15 54 17 0 27 28 12 33 -9 3 -9 8 -1 17 9 9 7 22 -9 52 -12 22 -23
35 -25 29 -5 -16 -22 -13 -22 4 0 8 7 15 15 15 8 0 12 6 9 14 -6 15 43 92 57
88 5 -1 9 5 9 13 0 8 5 15 10 15 12 0 14 36 3 43 -5 2 -2 2 5 1 6 -2 12 5 12
15 0 10 3 33 6 50 6 30 6 31 -30 31 -36 0 -66 18 -66 39 0 6 5 11 11 11 5 0 8
4 4 9 -3 5 -1 12 5 16 5 3 10 0 11 -7 1 -23 20 36 24 72 2 29 6 34 24 32 24
-4 29 16 6 24 -10 4 -12 15 -8 36 6 28 4 30 -18 24 -21 -6 -22 -5 -6 4 14 9
16 15 6 26 -8 10 -8 14 0 14 24 0 10 19 -19 25 -16 4 -30 11 -30 16 0 6 5 7
10 4 6 -3 10 -1 10 5 0 7 -12 10 -27 8 -23 -2 -27 0 -25 17 3 18 77 116 94
123 3 2 26 29 50 60 24 31 49 63 55 70 7 7 16 25 20 40 3 15 11 30 17 34 6 4
-15 8 -47 8 -53 0 -58 2 -52 19 5 17 -17 37 -37 33 -11 -3 -10 5 4 28 14 21 9
30 -19 34 -13 2 -17 11 -15 28 1 14 -4 31 -13 38 -8 7 -15 22 -15 34 0 14 -3
17 -8 9 -9 -15 -49 -6 -56 12 -5 13 72 65 95 65 5 0 9 5 9 10 0 6 -12 10 -26
10 -17 0 -23 -4 -18 -12 5 -7 -3 -5 -16 5 -14 9 -35 22 -47 29 -13 6 -23 15
-23 20 0 4 -6 8 -14 8 -28 0 -27 59 1 99 5 7 102 -64 103 -75 0 -16 34 -44 53
-44 9 0 17 -4 17 -10 0 -5 7 -10 15 -10 8 0 15 -4 15 -9 0 -5 9 -7 20 -4 15 4
20 0 20 -14 0 -10 13 -27 29 -36 17 -10 32 -26 36 -36 3 -10 13 -18 22 -17 8
0 17 -7 19 -17 3 -22 14 -36 14 -19 0 7 5 12 11 12 6 0 8 -8 4 -19 -5 -17 -2
-19 20 -15 24 4 31 -7 26 -38 -2 -13 11 -9 31 8 16 16 18 15 24 -1 4 -10 1
-20 -6 -25 -9 -6 -7 -10 9 -15 21 -6 30 -45 11 -45 -5 0 -10 -9 -10 -20 0 -11
7 -20 16 -20 8 0 13 -4 9 -9 -8 -14 15 -26 50 -26 28 0 30 -3 38 -46 8 -44 11
-47 45 -53 20 -3 41 -1 48 5 6 5 16 9 20 8 17 -4 129 14 147 23 10 5 22 19 27
31 9 21 9 22 9 1 1 -17 6 -20 31 -16 25 4 30 9 30 34 0 24 2 27 14 16 9 -8 11
-17 5 -22 -18 -20 -8 -28 30 -23 21 2 43 7 49 11 6 3 13 2 17 -3 4 -7 15 -7
32 0 14 5 41 7 59 3 22 -4 34 -2 34 5 0 12 42 15 54 4 10 -10 282 -19 431 -14
39 1 91 -1 118 -4 46 -7 47 -6 47 20 0 30 16 25 30 -9 8 -19 9 -19 9 7 1 20
-5 30 -18 34 -13 3 -17 11 -14 24 4 15 0 22 -16 26 -11 3 -21 11 -21 19 0 8 6
11 15 8 9 -4 15 0 15 10 0 9 5 16 11 16 5 0 7 5 3 11 -4 8 -9 7 -15 -2 -9 -16
-14 -12 -24 20 -6 20 -4 23 9 18 11 -5 16 -1 16 13 0 22 -16 27 -23 8 -2 -7
-8 5 -12 27 -4 22 -12 43 -18 47 -6 3 -10 26 -9 50 1 27 -1 38 -7 30 -7 -11
-9 -10 -15 3 -3 9 -10 13 -16 10 -6 -4 -10 9 -10 34 0 22 -4 51 -10 66 -7 17
-7 24 0 20 11 -7 13 6 4 29 -3 9 -12 16 -19 16 -8 0 -11 8 -8 23 4 18 3 19 -6
7 -9 -13 -11 -13 -11 -1 0 11 -4 9 -15 -5 -14 -19 -14 -18 -15 4 0 16 -6 22
-22 23 -13 1 -36 4 -53 6 -16 3 -696 6 -1510 6 l-1480 2 -45 -24 c-57 -30 -55
-28 -41 -44 9 -12 4 -15 -26 -20 -36 -6 -61 1 -35 10 21 8 14 43 -9 43 -12 0
-23 8 -26 20 -3 13 -14 20 -29 20 -13 0 -32 -9 -41 -20 -10 -11 -23 -20 -30
-20 -7 0 -18 9 -25 20 -13 20 -24 20 -554 20 l-542 0 -4 -37z m147 -393 c-16
-18 -16 -20 -2 -20 9 0 21 -9 26 -19 9 -16 6 -20 -17 -26 -15 -4 -21 -10 -14
-12 6 -3 12 -14 12 -25 0 -26 -24 -18 -28 10 -2 12 -7 22 -12 22 -5 0 -2 -19
6 -42 11 -31 11 -43 3 -49 -6 -4 -9 -12 -5 -18 4 -5 -2 -19 -14 -31 -25 -25
-25 -33 -1 -25 30 9 33 -10 6 -35 -14 -13 -25 -28 -25 -32 0 -5 7 -2 16 6 25
25 35 19 30 -20 -3 -23 1 -45 10 -60 17 -25 10 -49 -9 -37 -8 4 -7 1 1 -9 9
-11 10 -18 2 -23 -5 -3 -10 -15 -10 -26 0 -10 -4 -19 -9 -19 -5 0 -13 -9 -16
-20 -3 -11 -15 -20 -26 -20 -23 0 -25 -18 -4 -26 19 -8 20 -24 1 -24 -8 0 -16
-7 -20 -15 -9 -23 -7 -30 6 -30 23 0 19 -31 -6 -44 -32 -18 -42 -76 -19 -122
9 -19 21 -37 26 -41 6 -3 20 -33 32 -67 18 -50 20 -61 8 -65 -10 -4 -11 -11
-4 -23 6 -11 6 -24 0 -35 -7 -14 -6 -18 6 -18 8 0 15 -4 15 -10 0 -5 -7 -10
-15 -10 -22 0 -18 -28 5 -35 19 -6 29 -26 13 -24 -5 1 -16 1 -27 0 -15 -1 -16
-4 -6 -16 7 -8 18 -15 25 -15 7 0 16 -7 19 -16 4 -9 2 -13 -5 -8 -22 13 -27
-19 -9 -51 18 -32 18 -33 -2 -38 -11 -3 -17 -10 -14 -16 4 -5 -2 -14 -11 -20
-16 -9 -16 -12 -3 -21 10 -6 11 -10 3 -10 -7 0 -13 -8 -13 -17 0 -15 2 -16 10
-3 18 27 31 -10 25 -68 -5 -40 -3 -59 9 -78 15 -22 15 -26 0 -50 -13 -19 -14
-28 -5 -37 6 -6 11 -21 11 -34 0 -17 4 -21 18 -17 16 5 16 5 -1 -6 -9 -6 -21
-9 -26 -5 -6 3 -6 -7 0 -27 12 -44 11 -61 -3 -52 -6 4 -9 3 -5 -2 3 -5 8 -47
11 -93 3 -46 8 -86 11 -91 2 -4 -5 -18 -18 -31 -15 -17 -21 -34 -19 -55 2 -19
-3 -38 -13 -48 -15 -15 -12 -20 8 -17 11 2 8 -23 -7 -60 -7 -19 -11 -40 -9
-46 3 -7 -1 -13 -7 -13 -7 0 -10 -7 -7 -14 4 -9 -2 -17 -14 -21 -10 -4 -19
-10 -19 -14 0 -5 -20 -14 -46 -20 -44 -11 -69 -8 -59 9 3 4 -1 10 -9 13 -8 3
-16 -2 -19 -14 -3 -13 -12 -18 -27 -17 -21 3 -22 -1 -24 -62 -1 -49 -5 -65
-15 -65 -8 0 -16 -6 -19 -13 -2 -8 2 -10 14 -5 14 5 16 2 12 -20 -3 -15 -1
-27 4 -27 5 0 6 -9 3 -20 -4 -13 -2 -20 7 -20 7 0 22 -14 33 -30 14 -21 28
-30 47 -30 38 0 56 31 64 113 6 56 10 67 25 67 11 0 19 7 19 16 0 8 4 13 8 10
5 -3 18 3 28 13 24 22 84 44 84 30 0 -5 6 -9 13 -9 7 0 18 -5 24 -11 14 -14
-5 -78 -29 -103 -14 -13 -16 -22 -8 -37 14 -25 24 -24 17 1 -3 12 -1 20 6 19
30 -4 46 2 50 19 3 12 5 10 7 -8 1 -14 3 -29 5 -35 1 -5 3 -20 3 -32 2 -15 7
-21 17 -17 8 4 15 1 15 -6 0 -6 5 -8 13 -4 9 6 9 5 0 -7 -7 -9 -8 -20 -3 -28
4 -8 6 -19 4 -26 -3 -6 3 -18 13 -26 16 -13 17 -12 4 4 -7 9 -9 17 -3 17 14 0
22 -24 15 -51 -4 -15 -3 -20 5 -15 14 9 15 -3 2 -24 -5 -9 -5 -17 1 -21 5 -3
7 -13 3 -23 -5 -12 -9 -14 -14 -6 -5 7 -9 2 -12 -15 -5 -24 -3 -26 19 -20 23
5 24 5 9 -10 -21 -21 -20 -34 2 -58 16 -19 16 -20 -10 -15 -25 5 -28 2 -28
-24 0 -16 -6 -31 -14 -34 -8 -3 -22 -23 -30 -45 -18 -44 -32 -48 -67 -18 -16
14 -31 18 -48 14 -22 -6 -23 -4 -11 10 21 25 -6 38 -41 19 -37 -18 -36 -19
-31 20 3 29 1 34 -14 32 -28 -5 -54 12 -48 29 4 9 -1 18 -12 22 -30 10 -87 63
-69 63 8 0 15 5 15 11 0 6 -9 8 -21 4 -15 -5 -19 -4 -15 4 4 6 -3 16 -16 22
-13 5 -30 21 -38 34 -8 13 -39 51 -67 85 -52 59 -71 97 -36 69 15 -12 16 -12
8 6 -4 11 -8 28 -9 37 0 9 -2 15 -4 13 -3 -2 -14 1 -25 6 -14 8 -22 8 -27 -1
-11 -18 -126 124 -123 152 2 10 -1 17 -5 17 -19 -3 -23 2 -13 15 10 12 6 19
-19 38 -18 13 -38 35 -46 51 -8 15 -37 51 -64 80 -27 28 -75 89 -105 133 -38
56 -74 95 -113 122 -72 51 -137 118 -124 126 6 4 15 -2 21 -11 12 -22 26 -11
17 13 -5 12 -14 15 -34 11 -37 -7 -56 5 -48 31 4 11 36 44 71 73 36 30 65 57
65 62 0 4 6 7 13 7 6 0 50 36 97 80 88 82 159 125 221 135 36 5 36 6 42 62 4
41 20 85 56 155 28 54 48 105 45 113 -4 9 0 15 9 15 9 0 17 14 22 37 4 20 18
50 31 66 24 29 32 67 14 67 -5 0 -10 5 -10 11 0 7 10 9 25 6 19 -3 29 1 38 17
21 38 47 111 47 134 0 12 4 22 8 22 5 0 15 19 21 43 12 39 102 228 120 251 4
6 13 26 19 44 6 19 23 47 37 64 14 16 25 38 25 48 0 9 6 23 14 29 8 7 18 26
21 42 4 16 11 29 16 29 6 0 8 4 4 10 -11 18 39 90 63 90 12 0 12 -4 -3 -20z
m942 -1640 c-3 -11 -1 -18 3 -15 7 4 29 -43 30 -67 1 -4 14 -37 31 -73 16 -35
31 -73 33 -82 4 -25 38 -96 86 -183 23 -41 58 -104 77 -140 20 -36 50 -90 68
-120 18 -30 50 -86 70 -125 112 -212 139 -261 205 -375 40 -69 90 -156 110
-195 61 -115 102 -188 122 -217 10 -14 18 -28 18 -31 0 -6 178 -318 213 -374
13 -21 39 -65 57 -98 44 -79 57 -103 120 -210 29 -49 61 -105 71 -123 11 -18
39 -63 62 -100 87 -134 153 -258 182 -340 l24 -67 55 3 c43 3 67 -2 108 -21
52 -25 128 -88 128 -107 0 -22 -20 -17 -56 16 -70 64 -145 87 -194 62 -24 -13
-25 -16 -22 -108 3 -74 8 -103 24 -128 31 -51 40 -103 22 -129 -8 -13 -20 -23
-28 -23 -14 0 -41 75 -51 145 -4 22 -13 57 -21 78 -16 43 -18 105 -5 140 21
55 -61 241 -220 497 -53 85 -129 214 -169 285 -41 72 -105 181 -142 243 -37
63 -68 115 -68 117 0 3 -155 274 -206 360 -14 22 -40 72 -60 110 -20 39 -44
81 -54 95 -16 23 -29 46 -98 170 -13 25 -28 50 -32 55 -5 6 -42 75 -83 155
-41 80 -102 195 -136 255 -148 265 -271 545 -251 570 8 9 8 15 0 20 -5 3 -10
16 -11 28 0 21 -1 21 -8 2 -7 -18 -8 -17 -14 7 -4 14 -10 33 -13 42 -4 11 -1
16 11 16 12 0 16 -6 12 -20z m2003 -1040 c19 0 36 -43 20 -48 -14 -5 -12 -32
2 -32 21 0 48 -33 47 -59 0 -25 -1 -25 -9 -5 -16 41 -33 40 -26 -2 3 -22 2
-46 -4 -54 -6 -10 -10 -11 -10 -2 0 6 -7 12 -15 12 -9 0 -14 8 -12 22 1 17 -5
24 -28 29 -24 5 -27 7 -12 13 9 5 17 12 17 17 0 5 -8 9 -17 10 -11 0 -13 3 -6
6 10 3 9 10 -2 27 -15 23 -11 56 7 56 5 0 6 5 3 10 -4 6 -4 19 0 28 6 15 8 14
18 -5 5 -13 18 -23 27 -23z m-2710 -230 c0 -5 -5 -10 -12 -10 -15 0 -1 -13 17
-16 8 -1 13 2 10 7 -4 5 1 6 9 3 8 -3 17 -12 20 -19 8 -21 8 -226 0 -252 -4
-16 -2 -23 7 -23 10 0 10 -3 1 -12 -18 -18 -14 -52 8 -66 11 -7 20 -21 20 -33
0 -11 5 -30 12 -42 6 -12 12 -63 13 -113 l2 -90 -31 5 c-17 2 -25 6 -18 8 6 3
12 9 12 15 0 6 -7 8 -15 5 -17 -7 -30 9 -15 18 6 4 8 11 4 16 -10 17 -26 -3
-20 -27 5 -20 3 -24 -17 -24 -16 0 -37 16 -65 49 -23 27 -63 59 -88 72 -72 34
-142 118 -148 176 -3 28 20 63 41 63 7 0 13 7 13 15 0 9 11 20 25 25 15 6 25
17 25 29 0 11 7 26 15 35 8 8 15 19 15 24 0 5 9 17 20 27 10 9 19 25 18 34 -3
38 3 61 15 61 8 0 24 11 37 25 23 25 70 35 70 15z m-2910 -1357 c0 -4 -7 -34
-16 -67 -8 -34 -19 -77 -24 -96 -5 -19 -18 -66 -29 -105 -11 -38 -30 -112 -42
-163 -12 -51 -25 -95 -30 -98 -5 -3 -9 -16 -9 -30 0 -13 -9 -50 -20 -81 -11
-31 -18 -59 -15 -61 2 -3 -1 -14 -7 -26 -7 -11 -13 -55 -15 -96 -8 -167 -25
-201 -130 -248 -43 -19 -80 -38 -83 -42 -3 -4 -16 -11 -30 -15 -14 -4 -27 -11
-30 -15 -3 -4 -18 -13 -35 -21 -19 -9 -31 -23 -33 -38 -3 -17 -6 -20 -12 -11
-7 11 -15 10 -44 -4 -20 -9 -36 -21 -36 -26 0 -6 -5 -10 -10 -10 -6 0 -23 -12
-38 -26 -15 -14 -41 -31 -59 -39 -20 -9 -35 -23 -39 -39 -6 -24 -15 -31 -36
-27 -5 0 -8 -6 -8 -14 0 -8 -7 -15 -15 -15 -8 0 -15 -4 -15 -10 0 -5 -5 -10
-11 -10 -13 0 -69 -58 -69 -71 0 -5 -15 -23 -32 -40 -18 -17 -33 -34 -33 -38
0 -14 -30 -38 -43 -33 -6 2 -12 -3 -12 -11 0 -8 -11 -26 -25 -41 -15 -16 -22
-32 -18 -43 4 -10 2 -14 -4 -10 -6 4 -24 -8 -40 -27 -29 -36 -94 -58 -107 -37
-4 6 -1 9 7 5 8 -3 18 0 22 6 9 14 -13 30 -30 23 -7 -2 -20 3 -29 12 -9 10
-24 14 -35 10 -21 -6 -46 26 -37 48 2 7 5 4 5 -6 1 -10 6 -15 11 -12 6 3 10
-2 10 -12 1 -17 1 -17 11 0 9 15 7 23 -10 38 -12 11 -21 23 -21 27 -1 31 -50
38 -50 6 0 -10 -7 -11 -32 -2 -43 14 -55 25 -41 39 7 7 8 21 3 39 -7 25 -5 29
13 32 18 2 22 10 22 43 0 48 -18 108 -30 98 -4 -5 -5 -3 -1 4 10 17 -16 95
-34 100 -23 7 -69 108 -58 127 5 9 13 16 18 16 18 0 99 68 157 131 32 34 72
77 88 94 96 102 125 137 168 202 26 39 47 75 47 80 0 15 61 67 136 116 40 26
75 47 78 47 7 0 59 34 91 61 32 26 188 107 258 133 124 47 200 94 299 189 27
26 57 47 66 48 9 0 40 11 67 24 49 24 85 31 85 18z m9026 -726 c8 -26 29 -48
38 -40 3 4 6 -4 6 -16 0 -12 7 -24 15 -28 20 -7 48 -61 41 -79 -3 -7 5 -20 17
-29 17 -12 18 -15 5 -15 -9 0 -24 -7 -32 -16 -13 -12 -16 -13 -16 -1 0 7 -12
19 -26 26 -17 7 -24 17 -20 26 3 8 1 16 -4 16 -6 1 -16 2 -22 3 -14 1 -31 79
-25 113 2 12 1 20 -3 18 -12 -7 -21 25 -14 47 4 15 9 17 19 8 8 -7 17 -21 21
-33z"/>
        <path d="M4323 5141 c-13 -11 -23 -28 -23 -39 0 -11 -5 -22 -11 -24 -14 -5 7
-78 22 -78 5 0 9 -8 9 -18 0 -26 50 -71 87 -78 35 -7 96 23 107 52 24 64 -13
152 -77 183 -53 26 -85 26 -114 2z"/>
        <path d="M12675 5290 c-57 -8 -125 -35 -125 -50 0 -6 -8 -10 -19 -10 -31 0
-32 -36 -2 -69 22 -24 36 -31 65 -31 22 0 35 4 31 10 -3 6 -15 10 -26 10 -14
0 -19 6 -17 17 2 14 13 17 57 16 61 -2 69 -6 51 -28 -16 -19 -6 -19 54 3 27 9
52 24 54 31 4 11 0 12 -14 6 -32 -14 -68 -8 -83 14 -7 12 -22 21 -32 21 -28 0
-23 25 8 39 19 9 29 9 31 2 5 -15 42 -14 42 0 0 8 4 8 15 -1 8 -6 19 -9 25 -5
15 9 -19 35 -45 33 -11 0 -42 -4 -70 -8z"/>
    </g>
</svg>
